<svg version="1.1" id="Layer_1" xmlns="http://www.w3.org/2000/svg" xmlns:xlink="http://www.w3.org/1999/xlink" x="0px" y="0px"
	 width="100%" viewBox="0 0 361 57" enable-background="new 0 0 361 57" xml:space="preserve">
<path fill="#050505" opacity="1.000000" stroke="none" 
	d="
M266.000000,58.000000 
	C177.333359,58.000000 89.166718,58.000000 1.000059,58.000000 
	C1.000039,39.000031 1.000039,20.000065 1.000020,1.000072 
	C121.333260,1.000048 241.666519,1.000048 361.999817,1.000024 
	C361.999878,19.999926 361.999878,38.999851 361.999939,57.999889 
	C330.166656,58.000000 298.333344,58.000000 266.000000,58.000000 
M158.846649,49.954254 
	C159.467667,48.480453 161.017975,46.356255 160.529816,45.658749 
	C159.232574,43.805225 157.187088,42.310787 155.137756,41.263214 
	C154.621124,40.999123 152.973572,42.947380 151.590927,44.080620 
	C151.770279,44.107609 151.949631,44.134598 152.939407,44.130512 
	C157.783585,43.321564 158.380463,46.136795 157.492661,50.204216 
	C157.518097,50.583061 157.543518,50.961910 157.568939,51.340755 
	C157.758789,50.937542 157.948639,50.534328 158.846649,49.954254 
M244.176636,51.017563 
	C247.407425,50.277946 249.155365,47.951710 247.364731,45.278694 
	C245.664978,42.741341 242.943619,40.081104 238.254623,42.421543 
	C238.158768,44.188435 238.074127,45.956020 237.964874,47.722080 
	C237.676620,52.381691 239.741180,53.083675 244.176636,51.017563 
M63.026150,23.513643 
	C63.022099,20.016247 63.120422,16.514116 62.959053,13.023993 
	C62.901775,11.785098 62.500187,9.736961 61.766521,9.485452 
	C56.058426,7.528666 50.284660,4.768865 44.426594,4.495021 
	C37.046970,4.150051 29.586510,6.235422 22.125814,6.671473 
	C17.343552,6.950979 15.785609,8.861353 15.884799,13.472631 
	C16.106638,23.785856 15.954185,34.107132 15.954185,44.476982 
	C12.585448,46.037380 9.366990,47.528172 4.787344,49.649464 
	C21.601387,51.897831 36.843967,53.946056 52.092827,55.946434 
	C52.877701,56.049389 53.927151,56.018742 54.497192,55.583614 
	C59.975754,51.401699 65.377708,47.119434 71.371841,42.418701 
	C68.115540,41.945766 65.726761,41.598824 63.026989,41.206718 
	C63.026989,35.441288 63.026989,29.974178 63.026150,23.513643 
M167.662659,28.250988 
	C167.662659,22.843639 167.662659,17.436293 167.662659,11.631807 
	C165.402206,11.808039 163.867264,11.927709 161.791168,12.089568 
	C161.791168,15.997849 161.791168,19.459320 161.791168,24.081970 
	C159.440628,20.277090 157.522781,17.729902 156.202881,14.903481 
	C154.294144,10.816144 151.257767,11.532823 147.950897,12.085357 
	C147.950897,19.146000 147.950897,25.889618 147.950897,32.767551 
	C149.694092,32.767551 151.211288,32.767551 153.240311,32.767551 
	C153.240311,28.797277 153.240311,25.147419 153.240311,20.427084 
	C155.854446,24.694849 157.495422,28.219563 159.954987,31.027149 
	C161.157608,32.399940 163.859955,32.688732 165.938431,32.884285 
	C166.392990,32.927059 167.081528,30.482876 167.662659,28.250988 
M288.412354,13.981005 
	C283.277771,12.920419 278.143188,11.859833 272.742065,10.744189 
	C272.742065,19.126902 272.742065,25.985386 272.742065,33.179665 
	C274.677521,33.038837 276.230072,32.925869 277.706116,32.818470 
	C277.891083,30.275991 278.040344,28.224239 278.224030,25.699181 
	C282.766785,27.742870 282.955902,36.202774 290.222626,32.380291 
	C288.969727,30.236784 287.661224,27.998093 286.285706,25.644775 
	C290.120483,22.639896 291.872742,19.118086 288.412354,13.981005 
M203.851608,13.210284 
	C198.289444,18.430313 203.078369,21.823421 206.473801,25.345787 
	C204.429779,26.276848 202.827820,27.006544 201.218964,27.739389 
	C203.762131,32.797478 207.630356,34.454895 213.254654,33.120697 
	C216.597519,32.327709 219.065155,30.767895 219.198608,26.862446 
	C219.325592,23.147064 217.202744,21.535933 213.958527,20.687378 
	C211.586304,20.066906 209.271957,19.225122 206.931824,18.481985 
	C207.037201,17.988874 207.142578,17.495766 207.247955,17.002657 
	C210.993195,17.209074 214.738434,17.415491 219.354218,17.669888 
	C215.270355,11.025588 211.413651,10.058757 203.851608,13.210284 
M129.418396,12.605931 
	C124.888275,12.204203 120.358162,11.802473 115.611343,11.381527 
	C115.611343,19.080801 115.611343,25.944067 115.611343,33.152691 
	C117.521156,33.030384 119.084869,32.930241 120.600479,32.833179 
	C120.829178,30.259737 121.017181,28.144205 121.264160,25.365063 
	C125.613647,28.388466 126.136627,35.712833 133.316040,32.417168 
	C131.983582,30.245907 130.633804,28.046413 129.294983,25.864792 
	C134.526382,20.623825 134.706711,17.763216 129.418396,12.605931 
M342.336853,11.733758 
	C339.929535,11.733758 337.522186,11.733758 335.114624,11.733758 
	C335.114624,19.161560 335.114624,25.913067 335.114624,32.782150 
	C336.854187,32.782150 338.392548,32.782150 339.942108,32.782150 
	C340.081146,30.321177 340.202454,28.174339 340.367981,25.245070 
	C345.120422,27.936337 345.474823,36.048878 352.655182,32.441143 
	C351.394836,30.302240 350.070679,28.054998 348.746490,25.807756 
	C349.260040,25.882868 349.773560,25.957977 350.287079,26.033089 
	C350.950317,22.800770 352.596497,19.386551 352.040131,16.379910 
	C351.258148,12.154066 347.171783,11.499443 342.336853,11.733758 
M267.324341,31.142803 
	C265.048706,25.452478 262.897430,19.706400 260.391907,14.119164 
	C259.894592,13.010135 258.055939,11.927294 256.805176,11.891056 
	C255.520142,11.853824 253.483185,12.794417 253.009201,13.857339 
	C250.266220,20.008614 247.887939,26.322515 244.829071,33.975224 
	C247.932770,32.896160 250.328278,32.778217 251.491913,31.520525 
	C254.595123,28.166470 258.607910,28.202126 261.863647,31.429543 
	C262.902985,32.459850 265.643951,31.773615 267.324341,31.142803 
M323.693787,16.213890 
	C325.813629,16.213890 327.933502,16.213890 330.235748,16.213890 
	C330.235748,14.532135 330.235748,13.311178 330.235748,12.106551 
	C324.907532,12.106551 319.874237,12.106551 314.974548,12.106551 
	C314.974548,19.235037 314.974548,25.978434 314.974548,33.094280 
	C319.344757,33.094280 323.465454,33.001888 327.579895,33.122799 
	C331.024048,33.224007 330.957306,31.515806 330.090424,29.137598 
	C320.103821,28.250053 320.103821,28.250053 320.659546,24.960886 
	C328.755127,24.399864 328.755127,24.399864 327.867706,19.898010 
	C325.345917,19.898010 322.746490,19.898010 320.147064,19.898010 
	C319.913055,19.411875 319.679016,18.925737 319.445007,18.439602 
	C320.562622,17.697996 321.680267,16.956388 323.693787,16.213890 
M105.684074,25.790535 
	C109.304115,24.327900 111.958099,21.713875 110.764145,17.804445 
	C110.066879,15.521330 107.601761,12.693400 105.440598,12.180287 
	C101.592438,11.266644 97.371414,11.923460 93.375954,11.923460 
	C93.375954,19.314608 93.375954,26.081104 93.375954,32.895889 
	C95.116119,32.895889 96.576759,32.895889 98.178734,32.895889 
	C98.360031,30.604776 98.526634,28.499317 98.729179,25.939707 
	C100.902580,25.939707 102.872696,25.939707 105.684074,25.790535 
M234.882294,29.288319 
	C234.882294,25.015301 234.882294,20.742283 234.882294,16.400740 
	C237.254807,16.214445 238.996155,16.077711 240.645935,15.948168 
	C241.371613,12.995508 240.950607,11.524090 237.744812,11.680650 
	C233.284851,11.898460 228.806305,11.735461 224.075775,11.735461 
	C224.075775,13.323265 224.075775,14.550165 224.075775,15.957953 
	C225.819717,16.105051 227.421631,16.240170 229.584442,16.422598 
	C229.584442,21.965420 229.584442,27.373022 229.584442,32.913914 
	C232.232330,32.842037 235.103241,34.442677 234.882294,29.288319 
M310.313507,14.309594 
	C309.631287,13.456005 308.980255,11.894526 308.261810,11.862880 
	C303.331116,11.645686 298.386292,11.748829 293.608795,11.748829 
	C291.648224,18.014482 296.918671,15.276040 299.206635,16.932131 
	C299.206635,22.109489 299.206635,27.511120 299.206635,33.146629 
	C301.187134,33.024582 302.609863,32.936905 304.574158,32.815857 
	C304.574158,27.135790 304.574158,21.741955 304.574158,16.778954 
	C306.876007,16.159367 308.556580,15.707016 310.313507,14.309594 
M183.032852,21.660583 
	C183.032852,19.907995 183.032852,18.155409 183.032852,16.330170 
	C185.319702,16.200493 186.932938,16.109013 188.957520,15.994207 
	C188.876007,14.478833 188.805283,13.163646 188.739899,11.948225 
	C182.908859,11.948225 177.648224,11.948225 172.149628,11.948225 
	C172.149628,13.367640 172.149628,14.584117 172.149628,15.880900 
	C174.094910,16.105062 175.822205,16.304106 178.023590,16.557779 
	C178.023590,22.202166 178.023590,27.578960 178.023590,33.158138 
	C179.961792,33.028465 181.368439,32.934357 183.032837,32.823006 
	C183.032837,29.184790 183.032837,25.897923 183.032852,21.660583 
M143.549973,18.701546 
	C143.549973,16.445505 143.549973,14.189466 143.549973,11.588967 
	C141.295776,11.740107 139.722137,11.845615 138.277832,11.942453 
	C138.277832,19.192520 138.277832,25.969244 138.277832,32.841202 
	C140.070572,32.841202 141.629288,32.841202 143.549896,32.841202 
	C143.549896,28.249743 143.549896,23.948509 143.549973,18.701546 
M310.874390,46.481972 
	C308.634857,44.725910 306.595337,42.247021 304.063751,41.546566 
	C302.950439,41.238529 299.933350,44.334343 299.464966,46.288422 
	C299.099945,47.811245 301.339661,49.958458 302.530701,52.016220 
	C302.690186,48.985096 302.601013,46.875034 303.088867,44.908081 
	C303.176880,44.553001 306.717865,44.460594 306.820557,44.801895 
	C307.373718,46.639946 307.344849,48.653145 307.604919,51.606670 
	C308.782410,49.983910 309.783844,48.603779 310.874390,46.481972 
M271.814117,42.606754 
	C271.074921,42.530499 270.335754,42.454243 269.596558,42.377983 
	C269.931000,43.930763 270.265411,45.483547 270.599854,47.036327 
	C270.258789,46.719288 269.917725,46.402248 269.576660,46.085209 
	C268.370331,47.491459 267.164001,48.897709 265.139099,51.258156 
	C269.214630,50.498413 271.890289,49.999630 275.047272,49.411121 
	C273.968628,47.080017 273.083374,45.166782 271.814117,42.606754 
M210.382339,42.298870 
	C215.396408,43.628849 211.853806,48.865349 214.334885,51.579922 
	C215.113968,48.166428 215.824295,45.054192 216.538513,41.924927 
	C215.379227,41.924927 213.255829,41.924927 210.382339,42.298870 
M168.075607,47.346169 
	C168.924622,45.614368 169.773651,43.882572 170.956909,41.468994 
	C169.327606,41.364315 167.917786,41.273735 166.127609,41.158722 
	C166.571060,44.546589 166.928497,47.277374 167.285934,50.008160 
	C167.478317,49.999855 167.670685,49.991550 167.863068,49.983246 
	C167.933167,49.357189 168.003265,48.731136 168.075607,47.346169 
M171.825623,51.385807 
	C176.235626,48.786579 176.369141,45.961826 173.169250,43.787354 
	C172.627625,45.529171 171.948318,47.544106 171.394119,49.592888 
	C171.213470,50.260738 171.359146,51.016846 171.825623,51.385807 
M152.304947,48.275681 
	C151.674057,48.536640 151.043167,48.797600 150.412277,49.058563 
	C151.197708,50.027645 151.983139,50.996723 152.768570,51.965801 
	C153.135345,51.745541 153.502106,51.525280 153.868866,51.305019 
	C153.547379,50.408852 153.225876,49.512684 152.304947,48.275681 
z"/>
<path fill="#EEEEEE" opacity="1.000000" stroke="none" 
	d="
M63.026569,24.010357 
	C63.026989,29.974178 63.026989,35.441288 63.026989,41.206718 
	C65.726761,41.598824 68.115540,41.945766 71.371841,42.418701 
	C65.377708,47.119434 59.975754,51.401699 54.497192,55.583614 
	C53.927151,56.018742 52.877701,56.049389 52.092827,55.946434 
	C36.843967,53.946056 21.601387,51.897831 4.787344,49.649464 
	C9.366990,47.528172 12.585448,46.037380 15.954185,44.476982 
	C15.954185,34.107132 16.106638,23.785856 15.884799,13.472631 
	C15.785609,8.861353 17.343552,6.950979 22.125814,6.671473 
	C29.586510,6.235422 37.046970,4.150051 44.426594,4.495021 
	C50.284660,4.768865 56.058426,7.528666 61.766521,9.485452 
	C62.500187,9.736961 62.901775,11.785098 62.959053,13.023993 
	C63.120422,16.514116 63.022099,20.016247 63.026569,24.010357 
M28.374743,42.809502 
	C36.671646,41.947060 44.998661,40.974419 50.617664,49.911980 
	C50.891949,49.596348 51.166237,49.280716 51.440525,48.965080 
	C51.440525,35.516079 51.440525,22.067080 51.440525,7.805871 
	C40.338856,9.195743 29.642445,10.534879 18.785015,11.894173 
	C18.785015,23.233210 18.785015,33.916008 18.785015,45.771984 
	C20.103374,44.077690 20.565128,43.243790 21.241808,42.658287 
	C23.565908,40.647350 27.822193,41.463345 27.772406,43.875664 
	C26.973408,44.256474 26.174412,44.637287 25.375414,45.018097 
	C25.804100,45.620316 26.173359,46.688911 26.670704,46.752281 
	C31.400789,47.354984 36.152603,47.787140 40.898174,48.268330 
	C41.050255,47.464104 41.202335,46.659878 41.354416,45.855652 
	C37.254589,44.402107 32.788101,44.312099 28.374743,42.809502 
M60.283684,22.571299 
	C60.280964,20.905134 60.174229,19.231262 60.297031,17.574402 
	C60.558186,14.050935 59.006031,12.680505 55.455444,13.277934 
	C55.455444,23.408342 55.455444,33.477249 55.455444,43.584328 
	C60.212540,42.983021 60.269085,42.983528 60.304321,39.049770 
	C60.350582,33.885178 60.296692,28.719688 60.283684,22.571299 
z"/>
<path fill="#EFEFEF" opacity="1.000000" stroke="none" 
	d="
M167.662476,28.717508 
	C167.081528,30.482876 166.392990,32.927059 165.938431,32.884285 
	C163.859955,32.688732 161.157608,32.399940 159.954987,31.027149 
	C157.495422,28.219563 155.854446,24.694849 153.240311,20.427084 
	C153.240311,25.147419 153.240311,28.797277 153.240311,32.767551 
	C151.211288,32.767551 149.694092,32.767551 147.950897,32.767551 
	C147.950897,25.889618 147.950897,19.146000 147.950897,12.085357 
	C151.257767,11.532823 154.294144,10.816144 156.202881,14.903481 
	C157.522781,17.729902 159.440628,20.277090 161.791168,24.081970 
	C161.791168,19.459320 161.791168,15.997849 161.791168,12.089568 
	C163.867264,11.927709 165.402206,11.808039 167.662659,11.631807 
	C167.662659,17.436293 167.662659,22.843639 167.662476,28.717508 
z"/>
<path fill="#EBEBEB" opacity="1.000000" stroke="none" 
	d="
M288.660645,14.261700 
	C291.872742,19.118086 290.120483,22.639896 286.285706,25.644775 
	C287.661224,27.998093 288.969727,30.236784 290.222626,32.380291 
	C282.955902,36.202774 282.766785,27.742870 278.224030,25.699181 
	C278.040344,28.224239 277.891083,30.275991 277.706116,32.818470 
	C276.230072,32.925869 274.677521,33.038837 272.742065,33.179665 
	C272.742065,25.985386 272.742065,19.126902 272.742065,10.744189 
	C278.143188,11.859833 283.277771,12.920419 288.660645,14.261700 
M279.510834,16.191921 
	C278.802856,17.669374 278.094910,19.146830 277.386932,20.624283 
	C277.839874,21.096458 278.292847,21.568632 278.745789,22.040808 
	C280.827545,21.085304 282.909332,20.129801 284.991119,19.174299 
	C283.455353,18.176697 281.919586,17.179094 279.510834,16.191921 
z"/>
<path fill="#EBEBEB" opacity="1.000000" stroke="none" 
	d="
M204.184921,13.029051 
	C211.413651,10.058757 215.270355,11.025588 219.354218,17.669888 
	C214.738434,17.415491 210.993195,17.209074 207.247955,17.002657 
	C207.142578,17.495766 207.037201,17.988874 206.931824,18.481985 
	C209.271957,19.225122 211.586304,20.066906 213.958527,20.687378 
	C217.202744,21.535933 219.325592,23.147064 219.198608,26.862446 
	C219.065155,30.767895 216.597519,32.327709 213.254654,33.120697 
	C207.630356,34.454895 203.762131,32.797478 201.218964,27.739389 
	C202.827820,27.006544 204.429779,26.276848 206.473801,25.345787 
	C203.078369,21.823421 198.289444,18.430313 204.184921,13.029051 
z"/>
<path fill="#ECECEC" opacity="1.000000" stroke="none" 
	d="
M129.794678,12.801118 
	C134.706711,17.763216 134.526382,20.623825 129.294983,25.864792 
	C130.633804,28.046413 131.983582,30.245907 133.316040,32.417168 
	C126.136627,35.712833 125.613647,28.388466 121.264160,25.365063 
	C121.017181,28.144205 120.829178,30.259737 120.600479,32.833179 
	C119.084869,32.930241 117.521156,33.030384 115.611343,33.152691 
	C115.611343,25.944067 115.611343,19.080801 115.611343,11.381527 
	C120.358162,11.802473 124.888275,12.204203 129.794678,12.801118 
M122.457832,21.341772 
	C124.628525,20.998795 128.292938,22.448971 127.667603,18.460686 
	C127.470741,17.205061 123.815620,16.491659 120.420410,14.916263 
	C121.017715,18.240034 121.286583,19.736130 122.457832,21.341772 
z"/>
<path fill="#F5F5F5" opacity="1.000000" stroke="none" 
	d="
M342.800690,11.734016 
	C347.171783,11.499443 351.258148,12.154066 352.040131,16.379910 
	C352.596497,19.386551 350.950317,22.800770 350.287079,26.033089 
	C349.773560,25.957977 349.260040,25.882868 348.746490,25.807756 
	C350.070679,28.054998 351.394836,30.302240 352.655182,32.441143 
	C345.474823,36.048878 345.120422,27.936337 340.367981,25.245070 
	C340.202454,28.174339 340.081146,30.321177 339.942108,32.782150 
	C338.392548,32.782150 336.854187,32.782150 335.114624,32.782150 
	C335.114624,25.913067 335.114624,19.161560 335.114624,11.733758 
	C337.522186,11.733758 339.929535,11.733758 342.800690,11.734016 
M340.072144,20.040108 
	C341.982025,20.421757 343.897308,21.049444 345.797821,21.007395 
	C346.257477,20.997221 346.668182,18.774761 347.101379,17.569613 
	C345.441864,17.100319 343.766968,16.261873 342.129791,16.329947 
	C341.399017,16.360329 340.744049,18.212967 340.072144,20.040108 
z"/>
<path fill="#F2F2F2" opacity="1.000000" stroke="none" 
	d="
M267.465332,31.507793 
	C265.643951,31.773615 262.902985,32.459850 261.863647,31.429543 
	C258.607910,28.202126 254.595123,28.166470 251.491913,31.520525 
	C250.328278,32.778217 247.932770,32.896160 244.829071,33.975224 
	C247.887939,26.322515 250.266220,20.008614 253.009201,13.857339 
	C253.483185,12.794417 255.520142,11.853824 256.805176,11.891056 
	C258.055939,11.927294 259.894592,13.010135 260.391907,14.119164 
	C262.897430,19.706400 265.048706,25.452478 267.465332,31.507793 
z"/>
<path fill="#F1F1F1" opacity="1.000000" stroke="none" 
	d="
M323.245850,16.214336 
	C321.680267,16.956388 320.562622,17.697996 319.445007,18.439602 
	C319.679016,18.925737 319.913055,19.411875 320.147064,19.898010 
	C322.746490,19.898010 325.345917,19.898010 327.867706,19.898010 
	C328.755127,24.399864 328.755127,24.399864 320.659546,24.960886 
	C320.103821,28.250053 320.103821,28.250053 330.090424,29.137598 
	C330.957306,31.515806 331.024048,33.224007 327.579895,33.122799 
	C323.465454,33.001888 319.344757,33.094280 314.974548,33.094280 
	C314.974548,25.978434 314.974548,19.235037 314.974548,12.106551 
	C319.874237,12.106551 324.907532,12.106551 330.235748,12.106551 
	C330.235748,13.311178 330.235748,14.532135 330.235748,16.213890 
	C327.933502,16.213890 325.813629,16.213890 323.245850,16.214336 
z"/>
<path fill="#F0F0F0" opacity="1.000000" stroke="none" 
	d="
M105.263443,25.865120 
	C102.872696,25.939707 100.902580,25.939707 98.729179,25.939707 
	C98.526634,28.499317 98.360031,30.604776 98.178734,32.895889 
	C96.576759,32.895889 95.116119,32.895889 93.375954,32.895889 
	C93.375954,26.081104 93.375954,19.314608 93.375954,11.923460 
	C97.371414,11.923460 101.592438,11.266644 105.440598,12.180287 
	C107.601761,12.693400 110.066879,15.521330 110.764145,17.804445 
	C111.958099,21.713875 109.304115,24.327900 105.263443,25.865120 
M98.585411,16.903414 
	C98.585411,18.305767 98.585411,19.708118 98.585411,21.233362 
	C99.834740,21.315184 100.793785,21.669857 101.433769,21.361765 
	C102.970367,20.622040 104.357224,19.571245 105.804504,18.645975 
	C104.406265,17.808067 103.066208,16.835981 101.583450,16.192961 
	C100.914810,15.902993 99.961761,16.268826 98.585411,16.903414 
z"/>
<path fill="#F5F5F5" opacity="1.000000" stroke="none" 
	d="
M234.881714,29.762829 
	C235.103241,34.442677 232.232330,32.842037 229.584442,32.913914 
	C229.584442,27.373022 229.584442,21.965420 229.584442,16.422598 
	C227.421631,16.240170 225.819717,16.105051 224.075775,15.957953 
	C224.075775,14.550165 224.075775,13.323265 224.075775,11.735461 
	C228.806305,11.735461 233.284851,11.898460 237.744812,11.680650 
	C240.950607,11.524090 241.371613,12.995508 240.645935,15.948168 
	C238.996155,16.077711 237.254807,16.214445 234.882294,16.400740 
	C234.882294,20.742283 234.882294,25.015301 234.881714,29.762829 
z"/>
<path fill="#F5F5F5" opacity="1.000000" stroke="none" 
	d="
M310.275330,14.782129 
	C308.556580,15.707016 306.876007,16.159367 304.574158,16.778954 
	C304.574158,21.741955 304.574158,27.135790 304.574158,32.815857 
	C302.609863,32.936905 301.187134,33.024582 299.206635,33.146629 
	C299.206635,27.511120 299.206635,22.109489 299.206635,16.932131 
	C296.918671,15.276040 291.648224,18.014482 293.608795,11.748829 
	C298.386292,11.748829 303.331116,11.645686 308.261810,11.862880 
	C308.980255,11.894526 309.631287,13.456005 310.275330,14.782129 
z"/>
<path fill="#F9F9F9" opacity="1.000000" stroke="none" 
	d="
M183.032837,22.135818 
	C183.032837,25.897923 183.032837,29.184790 183.032837,32.823006 
	C181.368439,32.934357 179.961792,33.028465 178.023590,33.158138 
	C178.023590,27.578960 178.023590,22.202166 178.023590,16.557779 
	C175.822205,16.304106 174.094910,16.105062 172.149628,15.880900 
	C172.149628,14.584117 172.149628,13.367640 172.149628,11.948225 
	C177.648224,11.948225 182.908859,11.948225 188.739899,11.948225 
	C188.805283,13.163646 188.876007,14.478833 188.957520,15.994207 
	C186.932938,16.109013 185.319702,16.200493 183.032852,16.330170 
	C183.032852,18.155409 183.032852,19.907995 183.032837,22.135818 
z"/>
<path fill="#DFDFDF" opacity="1.000000" stroke="none" 
	d="
M143.549927,19.174412 
	C143.549896,23.948509 143.549896,28.249743 143.549896,32.841202 
	C141.629288,32.841202 140.070572,32.841202 138.277832,32.841202 
	C138.277832,25.969244 138.277832,19.192520 138.277832,11.942453 
	C139.722137,11.845615 141.295776,11.740107 143.549973,11.588967 
	C143.549973,14.189466 143.549973,16.445505 143.549927,19.174412 
z"/>
<path fill="#121212" opacity="1.000000" stroke="none" 
	d="
M310.829834,46.852806 
	C309.783844,48.603779 308.782410,49.983910 307.604919,51.606670 
	C307.344849,48.653145 307.373718,46.639946 306.820557,44.801895 
	C306.717865,44.460594 303.176880,44.553001 303.088867,44.908081 
	C302.601013,46.875034 302.690186,48.985096 302.530701,52.016220 
	C301.339661,49.958458 299.099945,47.811245 299.464966,46.288422 
	C299.933350,44.334343 302.950439,41.238529 304.063751,41.546566 
	C306.595337,42.247021 308.634857,44.725910 310.829834,46.852806 
z"/>
<path fill="#232323" opacity="1.000000" stroke="none" 
	d="
M272.006104,42.930149 
	C273.083374,45.166782 273.968628,47.080017 275.047272,49.411121 
	C271.890289,49.999630 269.214630,50.498413 265.139099,51.258156 
	C267.164001,48.897709 268.370331,47.491459 269.576660,46.085209 
	C269.917725,46.402248 270.258789,46.719288 270.599854,47.036327 
	C270.265411,45.483547 269.931000,43.930763 269.596558,42.377983 
	C270.335754,42.454243 271.074921,42.530499 272.006104,42.930149 
z"/>
<path fill="#0E0E0E" opacity="1.000000" stroke="none" 
	d="
M238.996933,42.014755 
	C242.943619,40.081104 245.664978,42.741341 247.364731,45.278694 
	C249.155365,47.951710 247.407425,50.277946 243.634399,50.825752 
	C243.043762,50.463696 242.995346,50.293442 243.127533,49.859314 
	C243.855453,48.527115 244.402756,47.458782 244.950058,46.390450 
	C243.384628,45.598351 241.819183,44.806255 240.166321,43.723167 
	C239.718231,42.959702 239.357590,42.487225 238.996933,42.014755 
z"/>
<path fill="#121212" opacity="1.000000" stroke="none" 
	d="
M151.845718,43.878967 
	C152.973572,42.947380 154.621124,40.999123 155.137756,41.263214 
	C157.187088,42.310787 159.232574,43.805225 160.529816,45.658749 
	C161.017975,46.356255 159.467667,48.480453 158.425537,49.983521 
	C158.004440,50.012783 157.864120,49.901936 157.864120,49.901936 
	C158.380463,46.136795 157.783585,43.321564 152.466705,44.072060 
	C151.994003,44.013607 151.845718,43.878963 151.845718,43.878967 
z"/>
<path fill="#A9A9A9" opacity="1.000000" stroke="none" 
	d="
M210.757385,42.111900 
	C213.255829,41.924927 215.379227,41.924927 216.538513,41.924927 
	C215.824295,45.054192 215.113968,48.166428 214.334885,51.579922 
	C211.853806,48.865349 215.396408,43.628849 210.757385,42.111900 
z"/>
<path fill="#949494" opacity="1.000000" stroke="none" 
	d="
M242.946915,50.123184 
	C242.995346,50.293442 243.043762,50.463696 243.280548,50.821190 
	C239.741180,53.083675 237.676620,52.381691 237.964874,47.722080 
	C238.074127,45.956020 238.158768,44.188435 238.625778,42.218147 
	C239.357590,42.487225 239.718231,42.959702 240.065887,44.137405 
	C240.481308,46.896717 238.337036,50.360752 242.946915,50.123184 
z"/>
<path fill="#1D1D1D" opacity="1.000000" stroke="none" 
	d="
M168.074493,47.725624 
	C168.003265,48.731136 167.933167,49.357189 167.863068,49.983246 
	C167.670685,49.991550 167.478317,49.999855 167.285934,50.008160 
	C166.928497,47.277374 166.571060,44.546589 166.127609,41.158722 
	C167.917786,41.273735 169.327606,41.364315 170.956909,41.468994 
	C169.773651,43.882572 168.924622,45.614368 168.074493,47.725624 
z"/>
<path fill="#1D1D1D" opacity="1.000000" stroke="none" 
	d="
M171.590591,51.559196 
	C171.359146,51.016846 171.213470,50.260738 171.394119,49.592888 
	C171.948318,47.544106 172.627625,45.529171 173.169250,43.787354 
	C176.369141,45.961826 176.235626,48.786579 171.590591,51.559196 
z"/>
<path fill="#121212" opacity="1.000000" stroke="none" 
	d="
M152.604675,48.446098 
	C153.225876,49.512684 153.547379,50.408852 153.868866,51.305019 
	C153.502106,51.525280 153.135345,51.745541 152.768570,51.965801 
	C151.983139,50.996723 151.197708,50.027645 150.412277,49.058563 
	C151.043167,48.797600 151.674057,48.536640 152.604675,48.446098 
z"/>
<path fill="#121212" opacity="1.000000" stroke="none" 
	d="
M158.071472,50.071949 
	C157.948639,50.534328 157.758789,50.937542 157.568939,51.340759 
	C157.543518,50.961910 157.518097,50.583061 157.678391,50.053078 
	C157.864120,49.901936 158.004440,50.012783 158.071472,50.071949 
z"/>
<path fill="#121212" opacity="1.000000" stroke="none" 
	d="
M152.061493,44.087601 
	C151.949631,44.134598 151.770279,44.107609 151.718323,43.979790 
	C151.845718,43.878963 151.994003,44.013607 152.061493,44.087601 
z"/>
<path fill="#0C0C0C" opacity="1.000000" stroke="none" 
	d="
M28.621292,44.007423 
	C27.822193,41.463345 23.565908,40.647350 21.241808,42.658287 
	C20.565128,43.243790 20.103374,44.077690 18.785015,45.771984 
	C18.785015,33.916008 18.785015,23.233210 18.785015,11.894173 
	C29.642445,10.534879 40.338856,9.195743 51.440525,7.805871 
	C51.440525,22.067080 51.440525,35.516079 51.440525,48.965080 
	C51.166237,49.280716 50.891949,49.596348 50.617664,49.911980 
	C44.998661,40.974419 36.671646,41.947060 28.440495,43.350990 
	C28.506245,43.892475 28.621292,44.007423 28.621292,44.007423 
M45.631481,40.187416 
	C46.011940,39.792412 46.392399,39.397404 46.908478,38.515739 
	C46.640594,38.334957 46.372715,38.154175 46.026936,37.176765 
	C46.026936,35.846992 46.026936,34.517220 46.026936,33.788475 
	C44.227650,33.406395 43.113098,33.169716 42.719398,32.789848 
	C42.532665,31.673233 42.345932,30.556618 42.020164,28.739601 
	C42.262260,25.547041 42.504356,22.354479 42.776337,18.767822 
	C40.756580,18.536608 38.865456,18.320120 36.976540,17.300167 
	C36.405186,11.169442 32.017200,13.104757 28.357864,13.095955 
	C29.754242,15.394736 36.059788,12.789915 32.700634,18.713226 
	C33.305386,22.065659 33.910137,25.418091 34.514889,28.770523 
	C34.871109,29.397038 33.507175,29.802994 32.693722,30.705246 
	C30.776693,32.831547 29.122095,35.194458 27.435297,37.552490 
	C27.435297,37.552490 27.582569,37.707531 27.655901,38.935593 
	C32.770756,39.298279 37.885609,39.660965 43.646942,40.300713 
	C44.094757,40.223797 44.542568,40.146877 45.631481,40.187416 
M22.938110,38.465294 
	C23.795813,38.504742 24.653513,38.544193 25.511213,38.583641 
	C25.507301,38.179443 25.503389,37.775249 25.499479,37.371052 
	C24.636415,37.406796 23.773352,37.442539 22.938110,38.465294 
z"/>
<path fill="#0E0E0E" opacity="1.000000" stroke="none" 
	d="
M60.284775,23.062943 
	C60.296692,28.719688 60.350582,33.885178 60.304321,39.049770 
	C60.269085,42.983528 60.212540,42.983021 55.455444,43.584328 
	C55.455444,33.477249 55.455444,23.408342 55.455444,13.277934 
	C59.006031,12.680505 60.558186,14.050935 60.297031,17.574402 
	C60.174229,19.231262 60.280964,20.905134 60.284775,23.062943 
z"/>
<path fill="#171717" opacity="1.000000" stroke="none" 
	d="
M28.196850,43.941544 
	C28.621292,44.007423 28.506245,43.892475 28.456665,43.898354 
	C32.788101,44.312099 37.254589,44.402107 41.354416,45.855652 
	C41.202335,46.659878 41.050255,47.464104 40.898174,48.268330 
	C36.152603,47.787140 31.400789,47.354984 26.670704,46.752281 
	C26.173359,46.688911 25.804100,45.620316 25.375414,45.018097 
	C26.174412,44.637287 26.973408,44.256474 28.196850,43.941544 
z"/>
<path fill="#171717" opacity="1.000000" stroke="none" 
	d="
M279.947327,16.186707 
	C281.919586,17.179094 283.455353,18.176697 284.991119,19.174297 
	C282.909332,20.129801 280.827545,21.085304 278.745789,22.040808 
	C278.292847,21.568632 277.839874,21.096458 277.386932,20.624283 
	C278.094910,19.146830 278.802856,17.669374 279.947327,16.186707 
z"/>
<path fill="#171717" opacity="1.000000" stroke="none" 
	d="
M122.006638,21.286999 
	C121.286583,19.736130 121.017715,18.240034 120.420410,14.916263 
	C123.815620,16.491659 127.470741,17.205061 127.667603,18.460686 
	C128.292938,22.448971 124.628525,20.998795 122.006638,21.286999 
z"/>
<path fill="#171717" opacity="1.000000" stroke="none" 
	d="
M340.063416,19.639343 
	C340.744049,18.212967 341.399017,16.360329 342.129791,16.329947 
	C343.766968,16.261873 345.441864,17.100319 347.101379,17.569614 
	C346.668182,18.774761 346.257477,20.997221 345.797821,21.007395 
	C343.897308,21.049444 341.982025,20.421757 340.063416,19.639343 
z"/>
<path fill="#232323" opacity="1.000000" stroke="none" 
	d="
M98.861588,16.620262 
	C99.961761,16.268826 100.914810,15.902993 101.583450,16.192961 
	C103.066208,16.835981 104.406265,17.808067 105.804504,18.645973 
	C104.357224,19.571245 102.970367,20.622040 101.433769,21.361765 
	C100.793785,21.669857 99.834740,21.315184 98.585411,21.233362 
	C98.585411,19.708118 98.585411,18.305767 98.861588,16.620262 
z"/>
<path fill="#050505" opacity="1.000000" stroke="none" 
	d="
M243.127533,49.859314 
	C238.337036,50.360752 240.481308,46.896717 240.153336,44.428394 
	C241.819183,44.806255 243.384628,45.598351 244.950058,46.390450 
	C244.402756,47.458782 243.855453,48.527115 243.127533,49.859314 
z"/>
<path fill="#F5F5F5" opacity="1.000000" stroke="none" 
	d="
M27.361336,37.461651 
	C29.122095,35.194458 30.776693,32.831547 32.693722,30.705246 
	C33.507175,29.802994 34.871109,29.397038 34.514889,28.770523 
	C33.910137,25.418091 33.305386,22.065659 33.440834,18.792118 
	C35.112129,18.615217 36.043232,18.359425 36.974331,18.103630 
	C38.865456,18.320120 40.756580,18.536608 42.776337,18.767822 
	C42.504356,22.354479 42.262260,25.547041 42.045788,29.525944 
	C42.047123,31.185873 42.022835,32.059456 41.998550,32.933041 
	C43.113098,33.169716 44.227650,33.406395 46.026936,33.788475 
	C46.026936,34.517220 46.026936,35.846992 45.752228,37.465866 
	C44.651836,38.511196 43.826149,39.267426 43.000462,40.023655 
	C37.885609,39.660965 32.770756,39.298279 28.225430,38.439545 
	C31.531132,37.630085 34.267303,37.316669 37.284630,37.118961 
	C38.218376,37.136002 38.870968,37.037334 39.523563,36.938663 
	C38.677509,36.631046 37.831455,36.323429 36.551018,36.013351 
	C33.198200,36.494484 30.279768,36.978065 27.361336,37.461651 
M38.924957,29.442562 
	C38.625771,29.125410 38.326584,28.808258 38.027397,28.491110 
	C37.850948,28.695721 37.674500,28.900333 37.498047,29.104944 
	C37.998596,29.403397 38.499146,29.701851 39.072479,30.562449 
	C39.373543,30.882233 39.674610,31.202015 39.975674,31.521801 
	C40.154957,31.315195 40.334240,31.108591 40.513519,30.901985 
	C40.009113,30.601221 39.504711,30.300457 38.924957,29.442562 
z"/>
<path fill="#C1C1C1" opacity="1.000000" stroke="none" 
	d="
M36.975433,17.701899 
	C36.043232,18.359425 35.112129,18.615217 33.820896,18.722923 
	C36.059788,12.789915 29.754242,15.394736 28.357864,13.095955 
	C32.017200,13.104757 36.405186,11.169442 36.975433,17.701899 
z"/>
<path fill="#EBEBEB" opacity="1.000000" stroke="none" 
	d="
M27.398315,37.507072 
	C30.279768,36.978065 33.198200,36.494484 36.557396,36.260090 
	C36.998154,36.509281 37.003479,37.003258 37.003479,37.003258 
	C34.267303,37.316669 31.531132,37.630085 28.188763,37.825516 
	C27.582569,37.707531 27.435297,37.552490 27.398315,37.507072 
z"/>
<path fill="#F2F2F2" opacity="1.000000" stroke="none" 
	d="
M43.323700,40.162186 
	C43.826149,39.267426 44.651836,38.511196 45.791176,37.864178 
	C46.372715,38.154175 46.640594,38.334957 46.565098,38.793655 
	C45.811275,39.404369 45.400829,39.737167 44.990383,40.069962 
	C44.542568,40.146877 44.094757,40.223797 43.323700,40.162186 
z"/>
<path fill="#EBEBEB" opacity="1.000000" stroke="none" 
	d="
M22.924198,37.971786 
	C23.773352,37.442539 24.636415,37.406796 25.499477,37.371052 
	C25.503389,37.775249 25.507301,38.179443 25.511215,38.583641 
	C24.653513,38.544193 23.795813,38.504742 22.924198,37.971786 
z"/>
<path fill="#F2F2F2" opacity="1.000000" stroke="none" 
	d="
M42.358974,32.861443 
	C42.022835,32.059456 42.047123,31.185873 42.115303,29.876144 
	C42.345932,30.556618 42.532665,31.673233 42.358974,32.861443 
z"/>
<path fill="#F5F5F5" opacity="1.000000" stroke="none" 
	d="
M45.310932,40.128689 
	C45.400829,39.737167 45.811275,39.404369 46.497284,39.036983 
	C46.392399,39.397404 46.011940,39.792412 45.310932,40.128689 
z"/>
<path fill="#F2F2F2" opacity="1.000000" stroke="none" 
	d="
M37.284630,37.118965 
	C37.003479,37.003258 36.998154,36.509281 36.991776,36.262543 
	C37.831455,36.323429 38.677509,36.631046 39.523563,36.938663 
	C38.870968,37.037334 38.218376,37.136002 37.284630,37.118965 
z"/>
<path fill="#F2F2F2" opacity="1.000000" stroke="none" 
	d="
M39.000305,29.999695 
	C39.504711,30.300457 40.009113,30.601221 40.513519,30.901985 
	C40.334240,31.108591 40.154957,31.315195 39.975674,31.521801 
	C39.674610,31.202015 39.373543,30.882233 39.036240,30.281223 
	C39.000000,30.000000 39.000305,29.999695 39.000305,29.999695 
z"/>
<path fill="#F2F2F2" opacity="1.000000" stroke="none" 
	d="
M38.999847,30.000153 
	C38.499146,29.701851 37.998596,29.403397 37.498047,29.104946 
	C37.674500,28.900333 37.850948,28.695721 38.027397,28.491108 
	C38.326584,28.808258 38.625771,29.125410 38.962631,29.721128 
	C39.000305,29.999695 39.000000,30.000000 38.999847,30.000153 
z"/>
</svg>