<?xml version="1.0" standalone="no"?>
<!DOCTYPE svg PUBLIC "-//W3C//DTD SVG 20010904//EN"
 "http://www.w3.org/TR/2001/REC-SVG-20010904/DTD/svg10.dtd">
<svg version="1.0" xmlns="http://www.w3.org/2000/svg"
 width="975.000000pt" height="239.000000pt" viewBox="0 0 975.000000 239.000000"
 preserveAspectRatio="xMidYMid meet">

<g transform="translate(0.000000,239.000000) scale(0.100000,-0.100000)"
fill="#000000" stroke="none">
<path d="M825 1842 c-27 -15 -94 -51 -148 -80 -53 -30 -102 -62 -107 -72 -6
-11 -10 -150 -10 -353 0 -277 -2 -337 -14 -346 -8 -7 -56 -17 -108 -24 -119
-14 -131 -27 -76 -79 18 -17 67 -57 109 -89 42 -32 83 -64 90 -71 8 -7 34 -29
59 -48 25 -19 47 -37 50 -41 3 -3 25 -20 49 -37 38 -28 52 -32 107 -32 34 0
122 9 196 21 73 11 169 24 213 28 44 5 107 13 140 19 33 6 101 16 150 23 50 6
119 15 155 21 36 6 99 14 140 18 95 9 201 30 218 43 34 27 -5 68 -83 88 -16 4
-55 17 -85 28 -30 12 -62 21 -71 21 -9 0 -28 9 -43 21 l-26 20 0 388 c0 214
-3 403 -6 420 -9 46 -63 83 -133 93 -228 31 -426 47 -561 47 -150 0 -157 -1
-205 -27z m625 -38 c58 -9 129 -21 157 -26 93 -19 88 9 91 -477 2 -234 0 -441
-3 -459 -8 -43 -50 -62 -142 -62 -37 -1 -95 -7 -128 -15 -33 -8 -80 -15 -104
-15 -24 0 -71 -4 -105 -10 -319 -50 -317 -50 -335 1 -14 41 -15 1016 -1 1053
l10 26 227 0 c158 0 260 -5 333 -16z m-672 -127 c2 -24 -1 -38 -10 -41 -58
-15 -96 -31 -115 -48 -12 -11 -26 -17 -32 -13 -15 9 -14 47 2 68 14 19 127 77
142 73 6 -1 11 -19 13 -39z m-128 -331 c9 -9 -8 -56 -21 -56 -12 0 -21 52 -10
63 6 6 12 22 12 37 2 22 2 22 6 -5 3 -16 8 -34 13 -39z m122 -37 c-9 -23 -9
-23 -16 5 -8 32 3 56 15 33 5 -8 5 -26 1 -38z m-121 -45 c9 -11 27 -15 68 -13
l56 3 3 -33 c2 -18 1 -40 -3 -48 -5 -14 -7 -14 -23 0 -15 13 -59 21 -99 18
-15 -1 -16 -10 -5 -28 10 -16 100 -34 108 -22 17 28 32 -28 18 -65 -5 -14 -8
-14 -21 -1 -8 8 -24 15 -36 15 -12 0 -28 4 -36 9 -17 11 -41 3 -41 -13 0 -19
65 -48 101 -44 l34 3 3 -77 c2 -64 0 -78 -12 -78 -30 0 -144 59 -149 77 -7 22
-7 295 0 306 7 11 19 8 34 -9z m-103 -336 c7 -7 12 -20 12 -30 0 -9 10 -26 22
-37 34 -32 290 -188 320 -195 15 -3 78 1 140 10 62 9 131 18 153 20 47 5 243
31 331 45 34 5 81 9 105 9 54 1 77 17 94 67 15 44 34 51 79 30 17 -8 56 -23
86 -33 30 -9 66 -24 79 -33 22 -14 22 -15 5 -22 -11 -4 -36 -8 -58 -8 -21 -1
-66 -5 -100 -11 -154 -24 -217 -33 -291 -41 -44 -4 -129 -15 -190 -24 -60 -8
-148 -20 -195 -25 -47 -5 -103 -14 -125 -19 -23 -6 -86 -11 -140 -13 l-100 -3
-110 85 c-187 144 -274 215 -275 222 -1 18 141 23 158 6z"/>
<path d="M1005 1776 c-27 -6 -56 -15 -62 -19 -19 -12 -19 -856 0 -881 12 -16
22 -18 73 -12 32 4 104 11 159 16 55 4 123 13 150 19 28 5 94 10 148 10 97 1
162 17 179 44 4 7 8 179 8 383 0 341 -1 372 -17 386 -20 16 -155 42 -305 58
-122 13 -268 11 -333 -4z m270 -45 c44 -5 120 -13 169 -16 l90 -7 -25 -19
c-13 -10 -40 -21 -59 -24 -19 -3 -49 -10 -65 -15 -17 -5 -52 -13 -78 -16 -43
-6 -47 -5 -58 19 -14 32 -53 46 -140 54 -63 5 -67 4 -101 -26 -30 -26 -37 -28
-42 -15 -8 21 -8 59 1 67 10 10 216 8 308 -2z m-50 -98 c14 -15 25 -33 25 -40
0 -19 -17 -24 -24 -8 -9 24 -86 55 -138 55 -27 0 -48 5 -48 10 0 6 33 10 80
10 74 0 81 -2 105 -27z m359 1 c10 -27 7 -592 -4 -599 -6 -4 -6 -15 1 -32 17
-45 -2 -52 -166 -63 -83 -6 -174 -15 -204 -20 -30 -6 -97 -10 -148 -10 -74 0
-95 3 -99 15 -10 25 16 45 60 47 l41 1 -40 4 c-22 3 -45 9 -52 15 -14 11 -17
57 -5 73 4 6 94 10 232 10 235 1 270 6 270 44 0 32 -24 42 -81 36 -63 -7 -72
-2 -85 45 -7 22 -16 34 -25 32 -58 -15 -79 -14 -79 2 0 12 9 16 36 16 21 0 33
4 29 10 -3 6 -23 10 -45 10 -31 0 -44 -6 -69 -35 -17 -20 -31 -42 -31 -50 0
-22 -34 -35 -93 -35 -41 0 -56 4 -61 16 -8 21 -8 409 1 417 15 16 33 -18 33
-63 0 -38 5 -53 26 -74 15 -14 31 -26 35 -26 5 0 9 -9 9 -19 0 -20 18 -31 50
-31 11 0 31 -16 46 -35 33 -44 78 -49 95 -11 11 22 31 37 72 50 14 4 17 18 17
80 0 77 -5 86 -50 86 -14 0 -30 18 -30 35 0 7 255 71 296 74 7 1 15 -6 18 -15z
m-426 -59 c6 -3 12 -11 12 -19 0 -10 -15 -17 -45 -21 -24 -4 -50 -13 -56 -21
-6 -8 -15 -11 -20 -8 -11 6 -12 68 -2 78 6 6 81 0 111 -9z"/>
<path d="M1240 866 c-74 -11 -75 -12 -78 -42 -4 -39 12 -46 76 -35 26 5 84 12
129 16 86 7 120 26 107 59 -5 13 -20 16 -83 15 -42 -1 -110 -7 -151 -13z"/>
<path d="M2623 1683 c-17 -6 -19 -514 -3 -544 8 -14 21 -19 55 -19 72 0 75 4
75 80 0 42 5 71 13 78 6 5 62 12 122 14 95 3 115 6 142 26 55 39 74 82 75 164
0 82 -10 114 -44 150 -45 48 -94 58 -266 57 -86 0 -163 -3 -169 -6z m306 -118
c44 -22 51 -103 13 -147 -12 -14 -31 -18 -92 -18 -46 0 -81 5 -88 12 -15 15
-16 122 -2 149 9 16 22 19 76 19 37 0 77 -6 93 -15z"/>
<path d="M3197 1683 c-12 -11 -8 -522 3 -544 9 -15 22 -19 65 -19 63 0 63 0
67 115 l3 70 43 3 c50 4 65 -6 95 -61 65 -119 75 -127 141 -127 30 0 57 4 61
10 5 9 -24 71 -65 135 -26 42 -25 54 15 92 41 40 59 98 52 169 -8 75 -30 110
-87 139 -47 24 -58 25 -218 25 -93 0 -172 -3 -175 -7z m321 -123 c25 -24 30
-85 10 -113 -16 -22 -131 -34 -170 -18 -26 10 -28 14 -28 70 0 73 9 80 101 81
52 0 70 -4 87 -20z"/>
<path d="M3780 1671 c-6 -12 -10 -116 -10 -270 0 -281 0 -281 71 -281 83 0 79
-13 79 289 0 302 6 281 -80 281 -39 0 -52 -4 -60 -19z"/>
<path d="M4007 1683 c-9 -8 -9 -526 -1 -547 8 -20 103 -23 122 -4 8 8 12 63
12 182 l0 169 21 -18 c11 -11 63 -88 115 -172 52 -84 104 -158 115 -163 11 -6
50 -10 87 -8 l67 3 0 280 0 280 -60 0 -60 0 -6 -175 c-3 -96 -6 -177 -7 -179
-6 -12 -41 36 -109 148 -42 69 -90 145 -105 169 l-29 42 -78 0 c-43 0 -81 -3
-84 -7z"/>
<path d="M4642 1681 c-9 -5 -12 -24 -10 -52 l3 -44 80 -3 c61 -2 83 -7 93 -19
9 -12 12 -74 12 -224 0 -229 -3 -219 66 -219 75 0 74 -4 74 229 0 159 3 211
13 219 7 6 46 12 87 14 l75 3 0 50 0 50 -240 2 c-132 2 -246 -1 -253 -6z"/>
<path d="M5480 1672 c-49 -24 -66 -44 -86 -99 -20 -57 -14 -105 19 -154 33
-49 91 -68 213 -68 95 -1 102 -3 125 -27 22 -23 23 -27 8 -52 -12 -22 -25 -29
-72 -36 -75 -12 -133 4 -150 42 -16 38 -25 42 -88 42 -67 0 -75 -13 -49 -80
35 -89 99 -120 250 -120 184 0 254 50 254 180 0 71 -16 106 -62 136 -21 14
-54 19 -147 22 -135 5 -165 16 -165 63 0 42 32 59 111 59 61 0 70 -3 88 -26
12 -15 21 -33 21 -40 0 -19 115 -20 127 -2 11 19 3 69 -15 101 -10 15 -37 39
-61 53 -40 22 -54 24 -165 23 -92 0 -129 -4 -156 -17z"/>
<path d="M5994 1676 c-3 -8 -4 -31 -2 -52 l3 -39 75 -3 c41 -2 80 -8 87 -14
10 -8 13 -60 13 -219 0 -196 1 -209 19 -219 27 -14 108 -13 118 3 4 6 10 109
13 227 l5 215 85 5 85 5 0 50 0 50 -248 3 c-206 2 -248 0 -253 -12z"/>
<path d="M6676 1668 c-9 -12 -23 -45 -32 -73 -9 -27 -20 -54 -24 -60 -3 -5
-15 -32 -24 -60 -10 -27 -24 -64 -32 -82 -8 -17 -14 -37 -14 -45 0 -8 -4 -18
-8 -23 -18 -20 -74 -177 -68 -191 6 -15 91 -20 112 -6 6 4 22 27 36 52 l25 45
108 0 108 0 26 -50 c26 -50 27 -50 80 -53 30 -2 58 1 64 7 9 9 -8 66 -48 156
-7 17 -21 53 -30 80 -10 28 -22 54 -26 60 -5 5 -9 15 -9 23 0 7 -11 38 -25 68
-14 30 -25 60 -25 67 0 7 -10 32 -23 57 l-22 45 -67 3 c-59 3 -68 0 -82 -20z
m109 -229 c4 -16 11 -31 16 -34 5 -4 9 -17 9 -31 0 -22 -3 -24 -53 -24 -30 0
-56 2 -59 5 -3 3 6 37 21 75 24 63 27 67 43 53 9 -8 20 -28 23 -44z"/>
<path d="M7137 1683 c-4 -3 -7 -126 -7 -273 0 -193 3 -269 12 -278 13 -13 85
-16 112 -6 13 5 16 22 16 79 0 99 3 105 54 105 31 0 48 -6 64 -23 12 -13 22
-26 22 -30 0 -12 64 -112 80 -124 22 -18 119 -17 126 1 3 7 -13 43 -35 80 -56
90 -59 110 -26 132 41 27 65 84 65 156 0 83 -29 135 -90 165 -41 20 -61 22
-216 22 -94 1 -174 -2 -177 -6z m327 -128 c19 -25 20 -84 1 -109 -11 -15 -31
-20 -90 -24 -93 -6 -105 2 -105 70 0 83 9 91 101 86 64 -2 81 -7 93 -23z"/>
<path d="M7724 1676 c-3 -8 -4 -31 -2 -52 l3 -39 65 -3 c121 -4 110 19 110
-221 0 -115 3 -216 6 -225 10 -25 110 -22 124 3 6 12 10 101 10 220 0 149 3
202 13 208 6 4 46 10 87 13 l75 5 0 50 0 50 -243 3 c-201 2 -243 0 -248 -12z"/>
<path d="M8313 1683 c-10 -3 -13 -68 -13 -273 0 -256 1 -270 19 -280 12 -6
102 -10 224 -10 231 0 230 0 225 72 l-3 43 -155 5 -155 5 -3 52 -3 52 118 3
118 3 3 29 c2 15 1 39 -2 52 -6 23 -10 23 -119 26 l-112 3 0 55 0 55 155 5
155 5 0 50 0 50 -220 2 c-121 1 -226 -1 -232 -4z"/>
<path d="M8867 1683 c-4 -3 -7 -126 -7 -273 0 -193 3 -269 12 -278 16 -16 105
-16 115 1 4 6 10 48 13 92 l5 80 49 0 49 0 52 -84 c29 -46 59 -87 66 -92 16
-10 90 -12 113 -3 19 7 12 27 -38 109 -20 33 -36 66 -36 74 0 8 15 29 33 46
59 57 73 163 33 247 -13 27 -32 44 -69 63 -48 24 -59 25 -217 25 -92 0 -170
-3 -173 -7z m322 -129 c26 -33 27 -75 4 -103 -20 -25 -98 -38 -157 -27 l-36 7
0 69 c0 45 4 70 13 73 6 3 44 6 84 6 66 1 73 -1 92 -25z"/>
<path d="M3448 923 c-16 -4 -18 -18 -18 -112 0 -59 3 -110 6 -113 12 -12 43 5
46 25 2 18 12 23 53 29 78 11 116 70 84 130 -20 37 -107 58 -171 41z m110 -59
c14 -25 3 -52 -23 -58 -46 -12 -66 13 -49 58 8 21 60 21 72 0z"/>
<path d="M3818 919 c-15 -8 -18 -25 -18 -113 0 -96 2 -104 20 -109 24 -6 50
16 50 43 0 10 4 21 8 24 12 7 52 -22 52 -37 0 -17 36 -38 55 -31 19 8 19 23 0
48 -13 17 -12 22 5 44 22 27 26 72 10 102 -18 34 -141 53 -182 29z m126 -62
c9 -15 7 -21 -9 -33 -39 -29 -78 -2 -61 42 8 21 56 14 70 -9z"/>
<path d="M4243 910 c-40 -24 -53 -48 -53 -100 0 -87 52 -128 148 -117 79 9
118 80 89 162 -24 68 -117 96 -184 55z m106 -40 c23 -12 34 -62 21 -94 -27
-72 -120 -47 -120 31 0 61 48 91 99 63z"/>
<path d="M4628 919 c-15 -8 -18 -25 -18 -114 l0 -103 31 -7 c50 -11 148 4 168
27 35 37 37 132 4 170 -26 30 -150 48 -185 27z m122 -54 c25 -13 30 -22 30
-52 0 -20 -7 -45 -17 -55 -20 -23 -78 -24 -87 -2 -9 25 -7 83 4 105 13 23 31
24 70 4z"/>
<path d="M5480 912 c-41 -20 -60 -53 -60 -104 0 -87 49 -125 148 -115 61 6 78
17 85 52 6 32 -22 34 -69 4 -35 -22 -62 -19 -89 7 -21 22 -19 87 3 107 23 21
75 22 92 2 14 -16 60 -21 60 -6 0 25 -16 43 -47 56 -46 20 -80 19 -123 -3z"/>
<path d="M5850 915 c-16 -19 -5 -35 25 -35 29 0 35 -16 35 -100 0 -56 3 -71
18 -78 33 -18 42 -3 42 69 0 82 11 109 45 109 32 0 43 20 20 37 -27 19 -168
18 -185 -2z"/>
<path d="M6678 919 c-15 -8 -18 -26 -18 -114 0 -103 0 -105 25 -111 28 -7 145
3 161 14 45 30 57 115 25 169 -16 25 -30 33 -71 42 -63 14 -100 14 -122 0z
m126 -60 c47 -37 22 -119 -37 -119 -33 0 -47 19 -47 63 0 75 32 97 84 56z"/>
<path d="M7070 911 c-14 -28 -13 -194 2 -209 17 -17 162 -16 177 1 18 22 -8
37 -66 37 -29 0 -53 5 -53 10 0 6 -1 13 -2 18 -2 4 17 9 42 12 37 4 46 9 48
28 3 20 -1 22 -42 22 -42 0 -46 2 -46 25 0 24 3 25 59 25 65 0 80 9 55 34 -11
12 -35 16 -89 16 -63 0 -76 -3 -85 -19z"/>
<path d="M7539 923 c-9 -2 -24 -25 -33 -51 -10 -26 -21 -55 -27 -64 -5 -10
-15 -36 -23 -58 -13 -37 -12 -41 4 -50 13 -7 22 -4 35 10 25 28 87 26 125 -2
42 -31 59 -13 38 39 -9 21 -28 68 -43 105 -26 64 -41 78 -76 71z m31 -137
c-15 -15 -34 9 -26 31 7 17 8 17 22 -1 9 -13 11 -23 4 -30z"/>
<path d="M7824 916 c-22 -17 -12 -33 26 -38 24 -3 25 -6 28 -83 3 -87 18 -113
53 -94 15 8 19 24 21 92 3 79 4 82 28 85 36 5 44 17 25 36 -22 21 -152 23
-181 2z"/>
<path d="M8483 913 c-57 -29 -75 -124 -34 -181 37 -53 161 -56 201 -5 87 110
-38 250 -167 186z m109 -50 c28 -25 25 -98 -6 -118 -29 -19 -72 -11 -86 15
-15 29 -12 81 7 102 20 22 61 23 85 1z"/>
<path d="M8867 917 c-15 -10 -17 -27 -15 -112 3 -99 3 -100 28 -100 23 0 25 5
30 49 3 27 10 51 15 52 6 2 25 -21 42 -50 22 -36 42 -56 59 -60 47 -12 55 6
52 118 -3 89 -5 101 -22 104 -26 5 -36 -15 -36 -75 0 -29 -3 -53 -7 -53 -5 0
-21 23 -38 52 -49 83 -74 101 -108 75z"/>
<path d="M2648 898 c-8 -13 -22 -45 -32 -73 -9 -27 -24 -63 -33 -78 -13 -25
-13 -31 -1 -43 13 -13 18 -12 40 6 31 24 100 27 118 5 13 -16 46 -20 54 -7 5
8 -60 180 -76 200 -17 19 -54 14 -70 -10z m52 -93 c0 -25 -14 -34 -24 -16 -8
12 3 41 15 41 5 0 9 -11 9 -25z"/>
<path d="M2986 904 c-3 -9 -6 -55 -6 -104 0 -91 12 -119 45 -106 12 4 15 26
15 116 0 109 0 110 -24 110 -13 0 -27 -7 -30 -16z"/>
<path d="M5014 895 c-11 -43 3 -156 22 -176 22 -24 96 -35 143 -20 46 13 62
43 68 131 4 52 2 68 -11 79 -30 25 -46 6 -46 -53 0 -100 -33 -141 -89 -111
-29 15 -30 18 -33 93 -3 71 -5 77 -25 80 -17 3 -24 -3 -29 -23z"/>
<path d="M6427 883 c-15 -87 -5 -178 20 -188 35 -13 44 14 41 119 -3 101 -3
101 -29 104 -23 3 -27 -1 -32 -35z"/>
<path d="M8197 914 c-4 -4 -7 -51 -7 -104 0 -75 4 -100 15 -110 12 -10 18 -10
30 0 13 10 15 33 13 114 -3 93 -5 101 -23 104 -12 2 -24 0 -28 -4z"/>
</g>
</svg>
